<?xml version="1.0" encoding="UTF-8"?>
<svg width="32px" height="32px" viewBox="0 0 32 32" version="1.1" xmlns="http://www.w3.org/2000/svg" xmlns:xlink="http://www.w3.org/1999/xlink">
    <!-- Generator: Sketch 43.1 (39012) - http://www.bohemiancoding.com/sketch -->
    <title>element-icon-hover-boxSVG</title>
    <desc>Created with Sketch.</desc>
    <defs></defs>
    <g id="Page-1" stroke="none" stroke-width="1" fill="none" fill-rule="evenodd">
        <g id="element-icon-hover-boxSVG">
            <rect id="Rectangle" fill="#91BFF4" fill-rule="nonzero" x="0" y="0" width="32" height="32" rx="3"></rect>
            <path d="M25.5954544,32 L2.99610022,32 C1.34139976,32 0,30.6657405 0,29.0038998 L0,25.1984848 L10.1984848,15 L26.3969696,31.1984848 L25.5954544,32 Z" id="Combined-Shape" fill="#40915A" fill-rule="nonzero"></path>
            <path d="M32,19.8015152 L32,29.0038998 C32,30.6586002 30.6657405,32 29.0038998,32 L2.99610022,32 C2.75050221,32 2.51180615,31.9706065 2.2833737,31.9151111 L23.1984848,11 L32,19.8015152 Z" id="Combined-Shape" fill="#4CAD6B" fill-rule="nonzero"></path>
            <rect id="Rectangle-10" fill="#FFC90F" fill-rule="nonzero" x="6" y="6" width="5" height="5" rx="2.5"></rect>
            <path d="M15,0 L29.0038998,0 C30.6586002,0 32,1.33425951 32,2.99610022 L32,29.0038998 C32,30.6586002 30.6657405,32 29.0038998,32 L15,32 L15,0 Z" id="Combined-Shape" fill="#BEB090" fill-rule="nonzero"></path>
            <path d="M15,10 L25.9975267,10 C26.5511774,10 27,10.4438648 27,11 C27,11.5522847 26.544239,12 25.9975267,12 L15,12 L15,10 Z M15,15 L25.9975267,15 C26.5511774,15 27,15.4438648 27,16 C27,16.5522847 26.544239,17 25.9975267,17 L15,17 L15,15 Z M15,20 L25.9975267,20 C26.5511774,20 27,20.4438648 27,21 C27,21.5522847 26.544239,22 25.9975267,22 L15,22 L15,20 Z" id="Combined-Shape" fill="#EBE4D6" fill-rule="nonzero"></path>
            <path d="M6.31190479,19.7519048 C6.03190339,19.7985717 5.75523949,19.8219048 5.48190479,19.8219048 C5.15523649,19.8219048 4.86857269,19.7852385 4.62190479,19.7119048 C4.63523819,19.6452378 4.64190479,19.5985716 4.64190479,19.5719048 C4.64190479,19.4185707 4.58523869,19.2919053 4.47190479,19.1919048 C4.35857089,19.0919043 4.23190549,19.0419048 4.09190479,19.0419048 C3.99190429,19.0419048 3.90357184,19.0735711 3.82690479,19.1369048 C3.75023774,19.2002384 3.70523819,19.2952375 3.69190479,19.4219048 C3.67190469,19.4819051 3.66190479,19.5352379 3.66190479,19.5819048 L3.67190479,19.6719048 L3.67190479,19.6919048 C3.71857169,19.8319055 3.78690434,19.9285712 3.87690479,19.9819048 C3.96690524,20.0352384 4.07523749,20.0719047 4.20190479,20.0919048 C4.53523979,20.1385717 4.87190309,20.2619038 5.21190479,20.4619048 C5.55190649,20.6619058 5.82523709,20.8952368 6.03190479,21.1619048 C6.15857209,21.335239 6.25857109,21.5269037 6.33190479,21.7369048 C6.40523849,21.9469058 6.44190479,22.1519038 6.44190479,22.3519048 C6.44190479,22.6985732 6.36523889,23.0352365 6.21190479,23.3619048 C6.03857059,23.73524 5.77190659,24.0252371 5.41190479,24.2319048 C5.05190299,24.4385725 4.65857359,24.5419048 4.23190479,24.5419048 C3.79856929,24.5419048 3.37690684,24.4569056 2.96690479,24.2869048 C2.55690274,24.1169039 2.22523939,23.8719064 1.97190479,23.5519048 C1.71857019,23.2319032 1.60523799,22.8619069 1.63190479,22.4419048 L1.63190479,22.3519048 C1.82523909,22.3185713 2.03857029,22.3019048 2.27190479,22.3019048 C2.47190579,22.3019048 2.64190409,22.3052381 2.78190479,22.3119048 C2.90857209,22.3185715 3.13523649,22.3219048 3.46190479,22.3219048 C3.46857149,22.5219058 3.53023754,22.6785709 3.64690479,22.7919048 C3.76357204,22.9052387 3.89857069,22.9619048 4.05190479,22.9619048 C4.18523879,22.9619048 4.29690434,22.9185719 4.38690479,22.8319048 C4.47690524,22.7452377 4.52190479,22.6219056 4.52190479,22.4619048 C4.52190479,22.4019045 4.51857149,22.3552383 4.51190479,22.3219048 C4.47857129,22.0752369 4.36190579,21.9019053 4.16190479,21.8019048 C3.96190379,21.7019043 3.69190649,21.6185718 3.35190479,21.5519048 L3.20190479,21.5219048 C2.91523669,21.4685712 2.66523919,21.3519057 2.45190479,21.1719048 C2.21190359,20.9385703 2.03190539,20.6885728 1.91190479,20.4219048 C1.79190419,20.1552368 1.73190479,19.8885728 1.73190479,19.6219048 C1.73190479,19.1885693 1.86357014,18.78024 2.12690479,18.3969048 C2.39023944,18.0135695 2.73190269,17.735239 3.15190479,17.5619048 C3.41190609,17.4552376 3.73523619,17.4019048 4.12190479,17.4019048 C4.62190729,17.4019048 5.07856939,17.4952372 5.49190479,17.6819048 C5.79857299,17.8419056 6.04190389,18.0519035 6.22190479,18.3119048 C6.40190569,18.5719061 6.49190479,18.8785697 6.49190479,19.2319048 C6.49190479,19.3652388 6.47190499,19.5385704 6.43190479,19.7519048 L6.31190479,19.7519048 Z M11.1219048,17.5519048 C10.9152371,18.6519103 10.6819061,19.7218996 10.4219048,20.7619048 C10.1619035,21.80191 9.83524009,23.0418976 9.44190479,24.4819048 C9.29523739,24.4819048 9.19523839,24.4852381 9.14190479,24.4919048 L9.04190479,24.5019048 C8.92190419,24.5152382 8.79857209,24.5219048 8.67190479,24.5219048 C8.25190269,24.5219048 7.92523929,24.4819052 7.69190479,24.4019048 C7.11190189,22.3552279 6.72190579,20.0985838 6.52190479,17.6319048 C6.58190509,17.5652378 6.70523719,17.5152383 6.89190479,17.4819048 C7.07857239,17.4485713 7.28523699,17.4319048 7.51190479,17.4319048 C7.72523919,17.4319048 7.96523679,17.4552379 8.23190479,17.5019048 L8.29190479,18.3919048 C8.33190499,19.0519081 8.37523789,19.623569 8.42190479,20.1069048 C8.46857169,20.5902405 8.53523769,21.0685691 8.62190479,21.5419048 C8.70190519,21.1752363 8.82523729,20.5085763 8.99190479,19.5419048 C9.19190579,18.3618989 9.32523779,17.6585726 9.39190479,17.4319048 C9.65190609,17.4852384 9.94856979,17.5119048 10.2819048,17.5119048 C10.6152398,17.5119048 10.8519041,17.525238 10.9919048,17.5519048 L11.1219048,17.5519048 Z M14.1019048,20.8119048 C14.3885729,20.8119048 14.711903,20.825238 15.0719048,20.8519048 L15.3919048,20.8719048 L15.5619048,20.8819048 L15.5819048,21.0919048 C15.5885715,21.1652385 15.6019047,21.3235702 15.6219048,21.5669048 C15.6419049,21.8102393 15.6519048,22.0185706 15.6519048,22.1919048 C15.6519048,22.5319065 15.6252384,22.8685698 15.5719048,23.2019048 C15.5252379,23.5019063 15.4085724,23.7552371 15.2219048,23.9619048 C15.0352372,24.1685725 14.7985729,24.3252376 14.5119048,24.4319048 C14.0252357,24.5785722 13.5752402,24.6519048 13.1619048,24.6519048 C12.8419032,24.6519048 12.5519061,24.6019053 12.2919048,24.5019048 C11.7652355,24.2685703 11.4219056,23.8619077 11.2619048,23.2819048 C11.2152379,23.1019039 11.1752383,22.8685729 11.1419048,22.5819048 C11.1419048,22.6552385 11.1052385,22.0585778 11.0319048,20.7919048 C11.0319048,20.5785704 11.0352381,20.4085721 11.0419048,20.2819048 C11.0552382,19.6819018 11.0885712,19.2419062 11.1419048,18.9619048 C11.2352386,18.4285688 11.4519031,18.0352394 11.7919048,17.7819048 C12.0452394,17.5952372 12.3919026,17.4685718 12.8319048,17.4019048 C12.9852389,17.3819047 13.141904,17.3719048 13.3019048,17.3719048 C13.9685748,17.3719048 14.515236,17.5402364 14.9419048,17.8769048 C15.3685736,18.2135731 15.5819048,18.6919017 15.5819048,19.3119048 L15.5619048,19.6319048 L15.5619048,19.7719048 C15.5152379,19.7785715 15.4585718,19.7819048 15.3919048,19.7819048 L14.7319048,19.7819048 C14.4785702,19.7819048 14.2352393,19.7685716 14.0019048,19.7419048 C13.841904,19.1952354 13.6619058,18.9219048 13.4619048,18.9219048 C13.4285713,18.9219048 13.391905,18.9185715 13.3519048,18.9119048 C13.3119046,18.9052381 13.2752383,18.9019048 13.2419048,18.9019048 C13.1352376,18.9019048 13.0419052,18.9419044 12.9619048,19.0219048 C12.9552381,19.0285715 12.931905,19.1085707 12.8919048,19.2619048 C12.7652375,19.6819069 12.7019048,20.3019007 12.7019048,21.1219048 C12.7019048,21.5285735 12.715238,21.8652368 12.7419048,22.1319048 C12.7885717,22.5785737 12.8785708,22.8619042 13.0119048,22.9819048 C13.0785718,23.021905 13.1319046,23.0485714 13.1719048,23.0619048 C13.2452385,23.0685715 13.3335709,23.0635715 13.4369048,23.0469048 C13.5402386,23.030238 13.6319044,23.0052383 13.7119048,22.9719048 C13.8252387,22.9252379 13.8985713,22.8185723 13.9319048,22.6519048 C13.9519049,22.5719044 13.9719047,22.4685721 13.9919048,22.3419048 C14.0119049,22.2152375 14.0185715,22.1385716 14.0119048,22.1119048 L13.7719048,22.1119048 C13.5252369,22.1252382 13.3352388,22.1052384 13.2019048,22.0519048 C13.1885714,21.9119041 13.1819048,21.7385725 13.1819048,21.5319048 L13.1819048,21.4219048 C13.1819048,21.395238 13.1835714,21.3502384 13.1869048,21.2869048 C13.1902381,21.2235711 13.1819049,21.1019057 13.1619048,20.9219048 C13.2152384,20.9219048 13.3285706,20.9085716 13.5019048,20.8819048 C13.7685728,20.8352379 13.9685708,20.8119048 14.1019048,20.8119048 Z" id="SVG" fill="#EBE4D6" transform="translate(8.640000, 21.011905) rotate(-90.000000) translate(-8.640000, -21.011905) "></path>
        </g>
    </g>
</svg>